<?xml version="1.0" encoding="utf-8"?>
<!-- Generator: Adobe Illustrator 16.0.0, SVG Export Plug-In . SVG Version: 6.00 Build 0)  -->
<!DOCTYPE svg PUBLIC "-//W3C//DTD SVG 1.1//EN" "http://www.w3.org/Graphics/SVG/1.1/DTD/svg11.dtd">
<svg version="1.1" xmlns="http://www.w3.org/2000/svg" xmlns:xlink="http://www.w3.org/1999/xlink" x="0px" y="0px" width="500px"
	 height="500px" viewBox="0 0 500 500" enable-background="new 0 0 500 500" xml:space="preserve">
<g id="Layer_2">
</g>
<g id="Layer_1">
	<circle fill="#F5E004" cx="252.093" cy="195.175" r="189.798"/>
	<g id="body">
		<path fill="#F0EEF0" d="M252.565,414.702l-28.786-86.414c-17.534,3.587-33.563,10.437-48.187,20.651l7.673,210.638l69.3,0.33
			l69.299-0.33l7.672-210.638c-14.623-10.215-30.652-17.064-48.186-20.651L252.565,414.702z"/>
		<path fill="#E7E4E6" d="M253.184,559.904l68.681-0.327l7.672-210.638c-14.623-10.215-30.652-17.064-48.186-20.651l-28.167,84.552
			V559.904z"/>
		<path fill="#75C6B8" d="M252.565,414.745l-29.841-85.305h58.737L252.565,414.745z"/>
		<path fill="#FFFFFF" d="M252.565,414.745l-38.876-59.713l3.95-7.812l-7.138-2.811l-1.011-12.944
			c1.384-0.683,6.131-2.012,14.178-4.051L252.565,414.745z"/>
		<path fill="#FFFFFF" d="M252.565,414.745l38.877-59.713l-3.953-7.812l7.137-2.811l1.012-12.944
			c-1.383-0.683-6.129-2.012-14.177-4.051L252.565,414.745z"/>
		<path fill="#FEE1C6" d="M187.845,345.156L187.845,345.156c12.422,0,22.509,10.087,22.509,22.511v253.945
			c0,12.423-10.086,22.509-22.509,22.509l0,0c-12.423,0-22.51-10.086-22.51-22.509V367.667
			C165.335,355.243,175.422,345.156,187.845,345.156z"/>
		<path fill="#FEE1C6" d="M318.408,346.156L318.408,346.156c12.422,0,22.508,10.087,22.508,22.511v253.945
			c0,12.423-10.086,22.509-22.508,22.509l0,0c-12.424,0-22.51-10.086-22.51-22.509V368.667
			C295.898,356.243,305.984,346.156,318.408,346.156z"/>
		<path fill="#E7E4E6" d="M340.916,434.324v-65.657c0-12.424-10.086-22.511-22.508-22.511c-12.424,0-22.51,10.087-22.51,22.511
			v65.657H340.916z"/>
		<path fill="#F0EEF0" d="M210.354,433.324v-65.657c0-12.424-10.086-22.511-22.509-22.511c-12.423,0-22.51,10.087-22.51,22.511
			v65.657H210.354z"/>
		<g id="buttons">
			<path fill="#CACACA" d="M238.841,448.947c0-2.677,2.174-4.852,4.852-4.852c2.677,0,4.85,2.175,4.85,4.852s-2.173,4.85-4.85,4.85
				C241.015,453.797,238.841,451.624,238.841,448.947z"/>
			<path fill="#CACACA" d="M238.841,487.752c0-2.677,2.174-4.852,4.852-4.852c2.677,0,4.85,2.175,4.85,4.852
				s-2.173,4.851-4.85,4.851C241.015,492.603,238.841,490.429,238.841,487.752z"/>
			<path fill="#CACACA" d="M238.841,524.617c0-2.677,2.174-4.851,4.852-4.851c2.677,0,4.85,2.174,4.85,4.851s-2.173,4.85-4.85,4.85
				C241.015,529.467,238.841,527.294,238.841,524.617z"/>
		</g>
	</g>
	<g id="head">
		<g id="ears">
			<path fill="#F9BF98" d="M177.82,178.104h153.787c14.468,0,26.214,11.745,26.214,26.213l0,0c0,14.468-11.746,26.214-26.214,26.214
				H177.82c-14.467,0-26.213-11.746-26.213-26.214l0,0C151.607,189.849,163.353,178.104,177.82,178.104z"/>
			<path fill="#EA7174" d="M179.785,190.335h149.858c6.872,0,12.45,5.482,12.45,12.233l0,0c0,6.752-5.578,12.234-12.45,12.234
				H179.785c-6.871,0-12.449-5.482-12.449-12.234l0,0C167.335,195.817,172.914,190.335,179.785,190.335z"/>
		</g>
		<g id="hair">
			<path fill="#0F2D3C" d="M292.803,103.875c3.432-6.281,5.382-13.485,5.382-21.141c0-24.395-19.808-44.203-44.205-44.203h-65.342
				c-24.396,0-44.204,19.808-44.204,44.203c0,15.98,8.497,29.99,21.208,37.765c-8.417,8.632-13.52,19.972-13.52,32.384
				c0,27.048,24.234,49.008,54.088,49.008h99.455c29.852,0,54.088-21.959,54.088-49.008s-24.236-49.008-54.088-49.008H292.803z"/>
		</g>
		<g id="neck">
			<path fill="#F69279" d="M252.094,273.837L252.094,273.837c14.124,0,25.591,13.081,25.591,29.191v28.351
				c0,16.111-11.467,29.191-25.591,29.191l0,0c-14.125,0-25.593-13.08-25.593-29.191v-28.351
				C226.501,286.918,237.968,273.837,252.094,273.837z"/>
		</g>
		<g id="face">
			<path fill="#FCC294" d="M184.184,103.875h133.602c6.173,0,11.183,5.011,11.183,11.182v132.959
				c0,42.429-34.446,76.875-76.874,76.875l0,0c-42.429,0-76.876-34.446-76.876-76.875V112.842
				C175.218,107.893,179.235,103.875,184.184,103.875z"/>
		</g>
		<g id="mouth_1_">
			<g id="mouth">
				<path fill="#FDFEFD" d="M297.898,265.313c2.069-5.329,3.202-11.112,3.202-17.156h-98.016c0,6.043,1.133,11.827,3.202,17.156
					H297.898z"/>
				<path fill="#B41E39" d="M297.898,265.313c-7.037,18.138-24.9,31.034-45.805,31.034c-20.905,0-38.769-12.896-45.807-31.034
					H297.898z"/>
			</g>
		</g>
		<g id="nose">
			<path fill="#F69372" d="M235.761,219.972c-0.004,0.056-0.004,0.112-0.004,0.167c0,9.016,7.321,16.337,16.337,16.337
				c9.015,0,16.336-7.321,16.336-16.337c0-0.055,0-0.111-0.003-0.167c-2.895,7.718-9.123,13.063-16.333,13.063
				C244.882,233.035,238.653,227.69,235.761,219.972z"/>
		</g>
		<g id="eyes">
			<path fill="#12323D" d="M286.317,201.691c0-4.825,3.916-8.742,8.741-8.742c4.824,0,8.74,3.917,8.74,8.742
				c0,4.824-3.916,8.74-8.74,8.74C290.233,210.431,286.317,206.515,286.317,201.691z M206.924,201.691
				c0-4.825,3.917-8.742,8.741-8.742c4.823,0,8.74,3.917,8.74,8.742c0,4.824-3.917,8.74-8.74,8.74
				C210.841,210.431,206.924,206.515,206.924,201.691z"/>
		</g>
		<g id="eyebrows">
			<path fill="#0B2D3D" d="M196.642,132.6h28.261c4.93,0,8.932,4.001,8.932,8.931v1.354c0,4.93-4.002,8.933-8.932,8.933h-28.261
				c-4.93,0-8.931-4.003-8.931-8.933v-1.354C187.71,136.601,191.712,132.6,196.642,132.6z"/>
			<path fill="#0B2D3D" d="M279.283,153.845h28.261c4.931,0,8.931,4.001,8.931,8.931v1.355c0,4.929-4,8.933-8.931,8.933h-28.261
				c-4.931,0-8.933-4.003-8.933-8.933v-1.355C270.351,157.846,274.353,153.845,279.283,153.845z"/>
		</g>
		<g id="g19371">
			<g id="g19379">
				<g>
					<defs>
						<rect id="SVGID_1_" x="182.252" y="163.761" width="62.812" height="62.828"/>
					</defs>
					<clipPath id="SVGID_2_">
						<use xlink:href="#SVGID_1_"  overflow="visible"/>
					</clipPath>
					<g clip-path="url(#SVGID_2_)">
						<g id="g19381" opacity="0.65">
							<g id="g19383" opacity="0.65">
								<g opacity="0.65">
									<path fill="#FFFFFF" d="M182.25,181.436l45.14,45.147c7.535-4.029,13.337-10.853,16.027-19.093l-42.08-42.073
										C193.1,168.1,186.273,173.904,182.25,181.436z"/>
								</g>
							</g>
							<g id="g19387" opacity="0.65">
								<g opacity="0.65">
									<path fill="#FFFFFF" d="M211.696,163.766c-0.721,0-1.425,0.03-2.134,0.078l35.422,35.426
										c0.05-0.712,0.078-1.421,0.078-2.135C245.062,178.708,230.122,163.766,211.696,163.766z"/>
								</g>
							</g>
						</g>
					</g>
				</g>
			</g>
		</g>
		<g id="g19391">
			<path fill="#292B2C" d="M211.696,230.501c-18.43,0-33.368-14.94-33.368-33.366c0-18.428,14.938-33.37,33.368-33.37
				c18.426,0,33.366,14.942,33.366,33.37C245.062,215.562,230.122,230.501,211.696,230.501z M211.696,158.832
				c-21.156,0-38.308,17.149-38.308,38.304c0,21.152,17.152,38.302,38.308,38.302c21.152,0,38.301-17.149,38.301-38.302
				C249.997,175.981,232.848,158.832,211.696,158.832z"/>
		</g>
		<g id="g19395">
			<g id="g19403">
				<g>
					<defs>
						<rect id="SVGID_3_" x="263.047" y="163.761" width="62.813" height="62.828"/>
					</defs>
					<clipPath id="SVGID_4_">
						<use xlink:href="#SVGID_3_"  overflow="visible"/>
					</clipPath>
					<g clip-path="url(#SVGID_4_)">
						<g id="g19405" opacity="0.65">
							<g id="g19407" opacity="0.65">
								<g opacity="0.65">
									<path fill="#FFFFFF" d="M263.05,181.436l45.143,45.147c7.532-4.029,13.335-10.853,16.02-19.093l-42.073-42.073
										C273.896,168.1,267.07,173.904,263.05,181.436z"/>
								</g>
							</g>
							<g id="g19411" opacity="0.65">
								<g opacity="0.65">
									<path fill="#FFFFFF" d="M292.493,163.766c-0.72,0-1.427,0.03-2.134,0.078l35.424,35.426
										c0.045-0.712,0.075-1.421,0.075-2.135C325.858,178.708,310.921,163.766,292.493,163.766z"/>
								</g>
							</g>
						</g>
					</g>
				</g>
			</g>
		</g>
		<g id="g19415">
			<path fill="#292B2C" d="M292.493,230.501c-18.43,0-33.368-14.94-33.368-33.366c0-18.428,14.938-33.37,33.368-33.37
				c18.428,0,33.365,14.942,33.365,33.37C325.858,215.562,310.921,230.501,292.493,230.501z M292.493,158.832
				c-21.157,0-38.306,17.149-38.306,38.304c0,21.152,17.148,38.302,38.306,38.302c21.154,0,38.304-17.149,38.304-38.302
				C330.797,175.981,313.647,158.832,292.493,158.832z"/>
		</g>
		<path fill="#292B2C" d="M258.435,200.864h-10.562v-7.46h10.562V200.864z"/>
		<g id="front-hair">
			<path fill="#0F2D3C" d="M270.689,101.472c0-22.008,17.869-39.878,39.878-39.878c22.012,0,39.881,17.87,39.881,39.878
				c0,22.011-17.869,39.879-39.881,39.879C288.559,141.351,270.689,123.482,270.689,101.472z"/>
		</g>
	</g>
</g>
</svg>
